<?xml version="1.0" encoding="UTF-8" standalone="no"?>
<svg
   version="1.1"
   viewBox="0.00 0.00 588.00 526.00"
   id="svg1755"
   sodipodi:docname="RedNoodles.svg"
   inkscape:version="1.2.2 (b0a8486541, 2022-12-01)"
   inkscape:export-filename="RedNoodles-200.png"
   inkscape:export-xdpi="200"
   inkscape:export-ydpi="200"
   xmlns:inkscape="http://www.inkscape.org/namespaces/inkscape"
   xmlns:sodipodi="http://sodipodi.sourceforge.net/DTD/sodipodi-0.dtd"
   xmlns="http://www.w3.org/2000/svg"
   xmlns:svg="http://www.w3.org/2000/svg">
  <defs
     id="defs1759" />
  <sodipodi:namedview
     id="namedview1757"
     pagecolor="#505050"
     bordercolor="#ffffff"
     borderopacity="1"
     inkscape:showpageshadow="0"
     inkscape:pageopacity="0"
     inkscape:pagecheckerboard="1"
     inkscape:deskcolor="#505050"
     showgrid="false"
     inkscape:zoom="1.4142136"
     inkscape:cx="252.43712"
     inkscape:cy="266.57926"
     inkscape:window-width="1920"
     inkscape:window-height="1009"
     inkscape:window-x="-8"
     inkscape:window-y="-8"
     inkscape:window-maximized="1"
     inkscape:current-layer="layer4" />
  <g
     inkscape:groupmode="layer"
     id="layer2"
     inkscape:label="Black">
    <path
       fill="#241b0e"
       d="m 86.69,117.12 q 0.1,-0.09 0.19,-0.19 0.11,-0.12 0.26,-0.16 2.89,-0.78 5.67,-1.89 7.47,-2.97 16.39,-5.04 1.76,-0.4 2.88,-0.34 0.39,0.02 0.69,-0.24 l 0.39,-0.35 a 1.32,1.29 -66.5 0 1 0.81,-0.33 q 1.17,-0.05 2.31,-0.49 3.12,-1.23 6.71,-1.97 0.45,-0.09 0.87,-0.32 c 1.54,-0.86 3.01,0.54 4.59,-1.18 q 0.38,-0.42 0.94,-0.33 l 1.4,0.23 q 0.52,0.08 0.89,-0.3 1.16,-1.24 2.93,-1 0.56,0.07 1.08,-0.14 2.21,-0.91 4.84,-1.37 2.43,-0.42 4.89,-1.01 12.02,-2.87 28.32,-5.59 11.79,-1.97 23.86,-3.74 c 4.13,-0.6 8.41,0.61 11.85,-2.45 q 4.5,-4.03 8.67,-8.35 c 6.33,-6.58 13.68,-12.01 21.62,-16.12 q 4.84,-2.51 13.23,-5.95 c 9.45,-3.88 19.9,-5.76 30.28,-6.96 4.18,-0.49 8.56,-0.33 12.77,-0.36 q 17.7,-0.13 33.87,5.98 c 18.88,7.13 34.22,17.57 47.74,32 2.71,2.9 6.8,1.82 10.29,2.24 q 13.77,1.65 27.21,3.61 10.14,1.47 19.67,4.41 c 1.88,0.57 3.63,0.45 5.41,1.14 q 0.49,0.19 0.91,-0.13 c 1.64,-1.26 1.86,-3.33 3.08,-4.97 q 7.86,-10.58 15.08,-19.85 3.83,-4.91 7.34,-10.05 2.94,-4.3 6.16,-8.59 15.84,-21.1 21.19,-28.63 2.87,-4.03 6.21,-8.17 c 4.72,-5.85 7.9,-13.05 14.06,-17.58 q 3.58,-2.64 7.98,-0.4 c 7.56,3.85 15.16,10.53 20.75,16.28 q 4.23,4.35 5.9,10.66 a 1.18,1.18 0 0 0 2.03,0.47 c 2.9,-3.33 7.49,-1.45 10.45,0.95 7.67,6.2 15.69,13.54 20.63,21.98 q 3.59,6.11 -1.3,10.78 -12.37,11.84 -22.77,22.95 c -11.85,12.65 -24.37,24.9 -36.7,37.07 a 1.12,1.12 0 0 0 0.36,1.83 q 22.12,9.15 40.59,23.33 17.16,13.18 22.88,32.67 0.77,2.63 0.45,5.09 -0.06,0.51 0.18,0.96 1.45,2.72 1.32,7.26 -0.26,9.01 -0.53,16.96 -0.02,0.63 -0.38,1.14 c -1.27,1.79 -0.12,4.06 -0.37,6.18 q -2.12,18 -3.43,22.64 -1.98,7 -3.49,13.49 -1.75,7.53 -3.57,13.84 -5.93,20.58 -14.48,39.61 -15.26,34.01 -37.18,61.81 -6.74,8.56 -12.53,15 -22.38,24.92 -48.5,44.21 -19.47,14.38 -42.59,25.09 -0.94,0.43 -0.93,1.45 c 0.02,4.1 -1.05,7.93 -1.17,12.08 q -0.2,7.09 -3.23,13.88 -1.19,2.65 -3.45,5.26 -2.48,2.86 -4.88,4.89 c -4.18,3.54 -10.01,6.62 -15.45,8.43 q -9.34,3.11 -22.94,5.47 -23.5,4.08 -44.65,5.54 c -13.27,0.92 -26.94,0.52 -40.55,0.57 -17.87,0.07 -36.18,-1.68 -53.19,-4.57 q -4.95,-0.85 -8.66,-1.36 -5.32,-0.73 -8.62,-1.52 -5.73,-1.37 -11.51,-2.96 -2.86,-0.79 -5.75,-2.13 c -7.01,-3.28 -14.46,-6.28 -19.17,-12.81 q -7.56,-10.46 -6.43,-23.32 0.11,-1.31 0.35,-2.61 0.8,-4.34 -3.53,-6.57 c -9.9,-5.1 -20.21,-10.26 -29.94,-16.88 Q 130.22,433.19 121.95,427.1 106.8,415.93 100.83,410.17 88.93,398.69 77.66,386.6 73.19,381.81 68.54,375.93 c -1.43,-1.81 -3.09,-3.19 -4.45,-5.16 q -8.27,-11.95 -16.19,-23.75 -1.02,-1.53 -1.7,-3.07 c -0.65,-1.45 -1.68,-2.56 -2.48,-3.97 Q 29.69,315.39 19.56,288.96 19.39,288.5 19.33,288.01 19.29,287.61 19.1,287.15 14.46,275.9 11.45,263.81 10.14,258.54 8.8,253.4 5.21,239.61 4.38,230.37 q -0.3,-3.36 -1.03,-6.6 -0.05,-0.24 0,-0.49 c 0.51,-2.2 -0.6,-3.5 -0.91,-5.52 Q 0.47,205.01 1.16,192.58 c 0.17,-3.07 1.26,-5.82 1.02,-8.91 q -0.09,-1.28 0.91,-2.09 0.38,-0.31 0.31,-0.8 C 2.83,176.89 6.83,169.23 8.7,166.7 q 3.84,-5.15 7.64,-9.66 2.14,-2.53 6.63,-6.64 3.32,-3.04 7.28,-5.89 22.43,-16.16 48.8,-24.88 0.27,-0.09 0.55,-0.14 0.52,-0.1 0.9,-0.45 0.66,-0.61 1.59,-0.55 0.64,0.04 1.15,-0.35 1.16,-0.86 2.65,-0.76 0.45,0.04 0.8,-0.26 z"
       id="path1571"
       style="display:inline"
       inkscape:label="Black" />
  </g>
  <g
     inkscape:groupmode="layer"
     id="layer3"
     inkscape:label="Red">
    <g
       fill="#a2050d"
       id="g1751"
       style="display:inline"
       inkscape:label="Red3" />
    <g
       fill="#b90311"
       id="g1745"
       style="display:inline"
       inkscape:label="Red2" />
    <g
       fill="#dc0c18"
       id="g1685"
       style="display:inline;fill:#dc143c;fill-opacity:1"
       inkscape:label="Red1">
      <g
         id="g2899"
         inkscape:label="Noodles"
         style="fill:#dc143c;fill-opacity:1">
        <path
           d="m 349.38,86.64 q 6.57,3 7.87,4.61 5.35,6.61 11.61,13.61 1.29,1.44 2.3,3.08 0.45,0.72 -0.31,0.35 -2.59,-1.28 -5.37,-2.33 c -1.35,-0.52 -2.76,-0.44 -4,-1.16 q -0.71,-0.42 -1.53,-0.64 -3.96,-1.07 -7.8,-2.13 -2.43,-0.68 -4.96,-0.77 -2.6,-0.09 -4.81,-0.87 c -3.67,-1.29 -6.65,-3.96 -10.27,-5.72 q -6.81,-3.33 -13.18,-5.38 -0.61,-0.2 -1.24,-0.55 -0.44,-0.25 -0.94,-0.28 c -0.98,-0.06 -1.79,-0.69 -2.69,-0.9 q -11.57,-2.67 -15.31,-3.07 -1.51,-0.16 -6.37,-0.11 -0.39,0.01 -0.71,0.18 -0.15,0.08 -0.3,0.16 -0.35,0.16 -0.73,0.08 -1.44,-0.32 -2.83,0.09 -1.59,0.48 -2.71,0.52 -6.06,0.22 -11.85,2.25 -2.99,1.05 -4,1.37 -3.28,1.01 -6.35,2.09 c -0.73,0.25 -0.89,0.88 -1.53,1.12 q -2.2,0.84 -4.26,1.62 -2.26,0.84 -4.05,2.03 -4.58,3.01 -9.01,6.39 -1.96,1.5 -4.22,1 -3.35,-0.75 -6.75,-2.36 -1.32,-0.63 -4.31,-1.64 -2.26,-0.77 -4.21,-2.01 4.05,-1.39 5.27,-2.16 c 5.12,-3.25 9.9,-7.42 15.37,-10.03 q 10.26,-4.9 20.56,-8.3 5.19,-1.71 10.62,-2.34 c 13.44,-1.57 28.76,-1.74 42,1.7 q 11.74,3.06 26.59,10.26 0.76,0.36 1.6,0.55 0.85,0.18 1.68,0.3 1.22,0.17 1.13,-0.61 z"
           id="path1637"
           style="fill:#dc143c;fill-opacity:1" />
        <path
           d="m 308.55,104.26 q -1.32,1.26 -1.3,1.51 a 1.54,1.53 -3.8 0 1 -1.41,1.61 q -4.89,0.38 -8.05,3.3 -0.84,0.77 -2.51,1.03 -1.38,0.21 -2.55,0.75 -3.2,1.49 -6.32,2.49 a 0.75,0.73 89.4 0 0 -0.48,0.5 q -0.13,0.48 -0.62,0.42 -0.26,-0.04 -0.5,0.08 -3.67,1.83 -6.63,4.03 -2.09,1.56 -4.12,3.33 -0.73,0.65 -1.52,0.07 -5.84,-4.34 -11.27,-9.87 a 1.63,1.63 0 0 1 0.18,-2.44 l 2.01,-1.52 q 2.69,1.27 4.21,0.64 10.55,-4.35 22.83,-4.68 6.49,-0.17 18.05,-1.25 z"
           id="path1639"
           style="fill:#dc143c;fill-opacity:1" />
        <path
           d="m 417.69,114.31 6.24,3.47 a 1.26,1.26 0 0 1 0.2,2.06 q -0.51,0.43 -0.5,1.09 0.01,0.39 -0.13,0.76 l -1.04,2.83 q -0.14,0.4 -0.47,0.67 -1.28,1.09 -2.16,2.56 -0.2,0.33 -0.55,0.47 -2.02,0.8 -4.15,0.29 -5.87,-1.4 -12.34,-1.88 -1.98,-0.15 -3.72,-1.12 -0.45,-0.25 -0.66,-0.71 l -5.03,-10.74 q 12.56,-0.51 24.12,1.53 0.54,0.09 0.19,-1.28 z"
           id="path1641"
           style="fill:#dc143c;fill-opacity:1" />
        <path
           id="path1643"
           d="m 199.28906,114.84961 c -8.48666,0 -15.56495,0.67792 -21.23828,2.03125 -12.44665,2.97333 -24.38079,8.09891 -35.80078,15.37891 -0.0267,0.02 -1.13675,0.80604 -3.33008,2.35937 -1.50666,1.06667 -3.12914,1.96784 -4.86914,2.70117 -2.76,2.84 -5.32474,4.87295 -7.6914,6.09961 -1.07334,0.55333 -2.44272,0.62737 -4.10938,0.2207 -0.32,-0.08 -0.63279,-0.0645 -0.93945,0.0488 -0.81334,0.31334 -1.57459,0.39977 -2.28125,0.25977 -0.25334,1.16666 -0.71844,1.82713 -1.39844,1.98047 -5.24666,1.16 -9.56141,2.55302 -12.94141,4.17969 -8.919988,4.26999 -17.788832,9.22102 -24.798825,16.29101 -12.186654,12.27999 -21.013808,27.23583 -26.480469,44.86914 -0.779999,2.00667 -1.083489,4.75667 -0.910156,8.25 0.07333,1.42667 0.779142,2.49141 2.119141,3.19141 3.239996,1.68666 6.507451,3.31224 9.800781,4.8789 0.544006,0.25944 1.180621,-0.0995 1.240234,-0.69922 0.66,-6.17999 1.799924,-12.20365 3.419922,-18.07031 0.446666,-1.60666 1.012553,-3.12101 1.699219,-4.54101 1.809998,-3.71 3.131408,-7.46954 5.191406,-11.01953 3.486663,-5.99333 7.915735,-11.49954 13.289063,-16.51954 4.613328,-4.31332 8.990863,-7.87612 13.130854,-10.68945 5.03333,-3.42 11.04574,-6.05992 18.03907,-7.91992 4.42666,-1.18 8.80419,-2.04823 13.13086,-2.60156 1.64666,-0.21334 3.03039,-0.6362 4.15039,-1.26953 1.14666,-0.64667 2.2331,-1.57573 3.25976,-2.78907 1.80667,-2.12666 3.87876,-4.18831 6.21875,-6.18164 1.09334,-0.93333 3.20032,-2.43953 6.32032,-4.51953 2.16666,-1.44 4.25929,-2.97294 6.27929,-4.59961 2.67333,-0.82666 5.20823,-1.79062 7.60156,-2.89062 1.13334,-0.52 2.24652,-0.91612 3.33985,-1.18946 1.16,-0.29333 2.30922,-0.59992 3.44922,-0.91992 1.75333,-0.5 3.52388,-0.86008 5.31054,-1.08008 2.22667,-0.28 4.3635,-0.78619 6.41016,-1.51953 1.31333,-0.47333 2.78969,-0.68109 4.42969,-0.62109 3.63999,0.13333 7.52992,0.16823 11.66992,0.10156 1.14667,-0.0133 2.31333,0.008 3.5,0.0684 0.34,0.02 0.64659,0.13008 0.91992,0.33008 0.52,0.39333 1.13938,0.59799 1.85938,0.61133 0.81333,0.02 1.60133,0.11573 2.36132,0.28906 1.75334,0.41333 3.46225,0.85365 5.12891,1.32031 2.64,0.75333 5.28808,1.54753 7.94141,2.38086 0.97,0.31 1.3682,0.87977 2.4082,1.00977 0.58,0.0733 1.16333,0.25859 1.75,0.55859 1.22667,0.63333 2.47357,1.23102 3.74024,1.79102 1.19999,0.52666 2.34807,1.12744 3.4414,1.80078 1.28667,0.79333 2.65604,1.59487 4.10938,2.4082 2.41333,1.36 4.71682,2.82706 6.91015,4.40039 2.20667,1.58667 4.19232,3.30063 5.95899,5.14063 2.75999,2.86666 5.28055,5.6938 7.56054,8.48046 0.73334,0.89334 1.78373,1.39334 3.15039,1.5 4.38667,0.33334 8.63977,0.58644 12.75977,0.75977 1.31333,0.0533 2.4831,-0.15443 3.50977,-0.62109 0.31333,-0.14667 0.4327,-0.38852 0.35937,-0.72852 -0.25333,-1.12666 -0.45152,-1.11155 -1.23818,-2.43899 -1.2457,-1.7965 -3.56384,-6.44298 -4.94151,-8.31101 -2.81999,-3.80666 -6.60604,-7.9249 -11.35937,-12.35156 -0.23333,0.84666 -0.73643,0.99164 -1.50977,0.43164 -13.09332,-9.38666 -26.89993,-15.89482 -41.41992,-19.52148 -6.71999,-1.67334 -13.258,-2.50977 -19.61133,-2.50977 z"
           sodipodi:nodetypes="cccccccccccccccccccccccccccccccccccccccccccccccccccccccccccsc"
           style="fill:#dc143c;fill-opacity:1" />
        <path
           id="path1645"
           d="M 338.77539 121.22461 C 335.92164 121.19961 332.97612 121.29786 329.93945 121.51953 C 324.03279 121.9462 318.39906 123.08922 313.03906 124.94922 C 307.96573 126.70922 302.53356 129.16698 296.74023 132.32031 C 295.47357 133.00698 294.27086 133.70659 293.13086 134.41992 C 292.05753 135.09325 291.04318 135.89365 290.08984 136.82031 C 288.48985 138.37364 286.82318 139.52906 285.08984 140.28906 L 292.93945 153.31055 C 295.24612 156.92388 297.20388 160.66573 298.81055 164.53906 C 299.11721 165.2924 299.58737 165.61023 300.2207 165.49023 A 1.17 1.17 0 0 0 301.17969 164.39062 C 301.32635 160.7973 301.52906 157.21705 301.78906 153.65039 C 302.37906 145.4804 309.3704 140.71054 316.65039 138.06055 C 324.37705 135.25388 332.40381 133.84341 340.73047 133.83008 C 342.43047 133.83008 344.24326 134.08938 346.16992 134.60938 C 347.98325 135.09604 349.7693 135.5631 351.5293 136.00977 A 1.05 0.93 70.3 0 1 351.92969 136.23047 C 351.99635 136.29047 352.06729 136.35016 352.14062 136.41016 A 1.04 1.05 58.1 0 0 353.01953 136.60938 C 353.59953 136.48938 354.0069 136.70023 354.24023 137.24023 C 354.35357 137.51357 354.54698 137.71318 354.82031 137.83984 C 355.59365 138.20651 356.35294 138.37318 357.09961 138.33984 C 357.91961 138.29984 358.62737 138.0107 359.2207 137.4707 C 360.6607 136.13737 362.33047 135.19086 364.23047 134.63086 C 365.37713 134.29086 366.52016 133.88349 367.66016 133.41016 C 368.75349 132.96349 369.87287 132.50263 371.01953 132.0293 C 373.23953 132.14263 375.19419 131.76086 376.88086 130.88086 C 377.31419 130.65419 377.5076 130.20573 377.46094 129.53906 C 374.51427 128.80573 369.35689 127.21929 361.99023 124.7793 C 355.07524 122.4843 347.33663 121.29961 338.77539 121.22461 z "
           style="fill:#dc143c;fill-opacity:1" />
        <path
           d="m 66.52,153.41 q -5.64,2.23 -8.74,2.71 -4.75,0.75 -8.42,1.73 -3.3,0.88 -0.44,-0.98 3.56,-2.31 7.27,-4.19 10.2,-5.16 20.1,-10.03 2.78,-1.36 5.29,-2.46 0.14,-0.07 0.29,0 0.05,0.02 0.07,0.07 0.06,0.15 -0.08,0.22 -7.36,3.83 -12.74,11.8 c -0.58,0.86 -1.71,0.78 -2.6,1.13 z"
           id="path1647"
           style="fill:#dc143c;fill-opacity:1" />
        <path
           d="m 538.63,158.32 c -3.8,-1.4 -8.05,-2.2 -12.61,-2.82 -2.93,-0.39 -5.57,-2.05 -8.73,-2.34 q -1.35,-0.13 -1.93,-1.35 -2.71,-5.8 -7.55,-9.92 -1.18,-1 0.33,-0.69 1.11,0.24 2.86,1.05 c 10.12,4.69 19.67,9.02 27.81,15.75 q 0.85,0.7 -0.18,0.32 z"
           id="path1649"
           style="fill:#dc143c;fill-opacity:1" />
        <path
           id="path1651"
           d="m 399.0957,146.94922 c -3.76249,0.0422 -7.51419,0.3595 -11.25586,0.95117 -2.38666,0.38 -5.06263,1.07031 -8.02929,2.07031 -3.88,1.31334 -6.48079,2.26295 -7.80078,2.84961 -5.4,2.39333 -11.03683,4.75652 -16.91016,7.08985 -0.21333,0.46 -0.15675,0.9538 0.16992,1.48046 0.16756,0.27729 0.42997,0.48639 0.74024,0.58985 l 7,2.28906 7.96093,4.16016 c 0.26639,0.13774 0.58929,0.0896 0.79883,-0.11914 3.24666,-3.2 7.15714,-5.30079 11.73047,-6.30078 0.37333,-0.08 0.75706,-0.10985 1.15039,-0.0899 0.4,0.02 0.74263,-0.0963 1.0293,-0.34961 0.23333,-0.20666 0.50698,-0.33109 0.82031,-0.37109 2.05,-0.25 3.9593,-1.15984 6.0293,-1.08984 2.14666,0.08 4.25674,0.0943 6.33008,0.041 2.42666,-0.0667 4.51815,0.062 6.27148,0.38867 2.61333,0.49334 5.30675,1.15381 8.08008,1.98047 1.36,0.40667 2.87549,0.4869 4.54883,0.24024 6.05332,-0.89334 11.62737,-2.01891 16.7207,-3.37891 1.09333,-0.29333 2.5224,-0.50729 4.28906,-0.64063 0.38,-0.0267 0.50133,-0.22007 0.36133,-0.58007 -0.25333,-0.64 -0.74404,-1.05047 -1.4707,-1.23047 l -11.63086,-7.25 c -0.46667,1.29333 -1.5655,1.77784 -3.29883,1.45117 -2.44667,-0.46667 -5.22961,-1.23722 -8.34961,-2.31055 -2.49333,-0.86 -5.32667,-1.41039 -8.5,-1.65039 -2.265,-0.1725 -4.52766,-0.24601 -6.78516,-0.2207 z"
           sodipodi:nodetypes="sccccccccccccccccccccccccccs"
           style="fill:#dc143c;fill-opacity:1" />
        <path
           d="m 238.06,159.84 q 1.63,-0.13 2.55,2.57 a 0.41,0.41 0 0 1 -0.32,0.53 q -2.86,0.47 -5.73,1.28 -2.34,0.67 -4.72,0.88 -2.34,0.2 -4.54,0.78 -4.72,1.25 -8.11,-0.56 -2.28,-1.22 -4.44,-1.71 -2.5,-0.56 -4.97,-1.34 -2.48,-0.77 -5.24,-0.92 -5.9,-0.33 -11.22,0.34 -0.54,0.07 -1.02,-0.19 c -1.52,-0.82 -2.83,-1.92 -4.57,-2.3 q -3.41,-0.74 -6.56,-1.69 -0.45,-0.13 -0.79,-0.46 l -0.52,-0.53 a 0.22,0.22 0 0 0 -0.36,0.09 q -0.23,0.72 -0.91,0.47 c -2.07,-0.8 -4.04,-1.61 -6.31,-1.54 q -1.88,0.06 -3.34,-0.68 -1.31,-0.67 -2.75,-0.73 -0.71,-0.03 -0.29,-0.61 0.65,-0.9 2.25,-1.64 0.1,0.98 0.87,1.12 1.76,0.35 3.23,-0.09 7.24,-2.14 14.99,-4.1 1.75,-0.44 3.51,-0.67 c 1.55,-0.21 3.2,-0.53 4.77,-0.57 q 6.52,-0.15 13.79,0.66 2.3,0.26 4.41,0.94 1.54,0.5 3.02,0.87 1.54,0.38 2.96,0.93 10.24,3.97 20.36,8.87 z"
           id="path1653"
           style="fill:#dc143c;fill-opacity:1" />
        <path
           d="m 333.07,161.52 c -5.08,0.09 -10.13,1.07 -15.15,1.69 q -0.76,0.1 -1.06,-0.61 -0.47,-1.11 -0.3,-2.38 c 0.93,-6.54 5.55,-8.26 11.17,-9.45 4.25,-0.91 9.17,-0.59 13.45,-0.56 a 0.55,0.55 0 0 1 0.41,0.91 c -0.76,0.89 -1.81,1.57 -2.37,2.61 q -2.06,3.86 -5.07,7.29 -0.43,0.49 -1.08,0.5 z"
           id="path1655"
           style="fill:#dc143c;fill-opacity:1" />
        <path
           id="path1657"
           d="M 494.30078 153.80078 C 493.96745 153.78078 493.66706 153.87651 493.40039 154.08984 C 491.96706 155.25651 490.94031 156.36659 490.32031 157.41992 L 484.33984 163.9707 A 1.46 1.45 39.1 0 0 484.57031 166.14062 C 490.99031 170.74062 496.33914 175.45573 500.61914 180.28906 C 503.55247 183.60906 506.78698 188.14087 510.32031 193.88086 C 516.42031 203.79085 520.04094 215.44009 521.96094 227.08008 A 0.64 0.63 74.1 0 0 522.83008 227.57031 L 527.17969 225.78906 L 534.36914 222.21094 A 1.67 1.68 73.2 0 0 535.28906 220.5 C 534.68906 215.79 534.27062 211.02984 532.89062 206.33984 C 531.39729 201.28652 529.80581 196.69078 528.11914 192.55078 C 527.31914 190.59745 526.41062 188.73737 525.39062 186.9707 C 521.1373 179.59738 516.05085 172.76403 510.13086 166.4707 C 505.87753 161.94404 501.25929 157.94713 496.2793 154.48047 C 495.6793 154.06714 495.02078 153.84078 494.30078 153.80078 z "
           style="fill:#dc143c;fill-opacity:1" />
        <path
           d="m 189.9,178.49 q 1.25,-1.14 3.09,0.75 0.25,0.27 0.41,0.61 0.2,0.43 0.61,0.71 a 1.44,1.44 0 0 1 0.23,2.19 q -1.25,1.3 -2.7,2.35 -1.26,0.92 -2.73,1.42 -3.76,1.29 -6.52,4.25 a 3.09,3.07 35.9 0 1 -3.73,0.59 q -3.15,-1.73 -6.39,-2.55 -4.11,-1.03 -8.45,-1.88 -2.54,-0.51 -5.44,-0.41 -2.46,0.09 -5.04,-0.15 a 1.92,1.87 34.9 0 0 -0.97,0.16 q -2.02,0.9 -4.23,0.73 -2.99,-0.23 -4.16,-0.02 -6.25,1.12 -12.06,2.45 -2.02,0.46 -3.58,1.43 -1.19,0.74 -2.52,1.14 -1.21,0.36 -2.29,1.23 -2.39,1.91 -5.48,3.32 -1.59,0.72 -2.46,2.25 -0.25,0.43 -0.68,0.69 -3.24,1.94 -4.82,5.12 -0.24,0.47 -0.71,0.71 -0.73,0.37 -1.22,0.98 -1.69,2.14 -3.17,3.84 -1.87,2.15 -3.01,3.94 -6.56,10.35 -8.35,22.48 a 0.74,0.73 13.2 0 1 -0.96,0.59 l -11.88,-3.94 a 1.46,1.28 -78 0 1 -0.85,-1.52 q 1.4,-10.73 5.34,-19.31 7,-10.31 15.4,-18.5 7.24,-7.06 14.51,-10.73 c 11.7,-5.91 22.99,-9.49 36.49,-9.88 3.61,-0.11 7.31,0.34 11.02,0.54 q 5.44,0.3 11.18,1.65 0.38,0.09 6.31,2.09 4.9,1.66 9.81,0.68 z"
           id="path1659"
           style="fill:#dc143c;fill-opacity:1" />
        <path
           d="m 334.1,176.57 q -0.14,3.08 4.9,3.2 6.72,0.16 9.92,0.88 10.91,2.42 20.1,9.71 2.96,2.35 7.6,7.38 3.59,3.89 7.4,7.82 1.83,2.06 2.46,4.19 0.84,2.84 2.1,9.52 0.54,2.86 0.57,4.45 0,0.33 0.23,0.56 0.09,0.1 0.22,0.16 0.07,0.03 0.06,0.1 -0.48,3.43 -0.49,6.84 -0.01,3.43 -0.68,6.73 -0.69,3.41 -1.47,6.56 -1.72,6.93 -6.15,14.81 a 1.01,1.01 0 0 1 -0.83,0.52 l -16.97,1.12 q -0.71,0.05 -0.69,-0.66 0.01,-0.41 0.25,-0.75 c 12.22,-16.38 14.48,-38.48 2.13,-55.13 q -4.5,-6.07 -11.5,-8.11 c -2.03,-0.6 -4.25,0.13 -5.87,-1.61 q -8.76,-9.35 -19.99,-16.09 a 0.29,0.29 0 0 1 -0.01,-0.49 q 3.65,-2.35 6.71,-1.71 z"
           id="path1661"
           style="fill:#dc143c;fill-opacity:1" />
        <path
           d="m 495.98,201.65 q 7.43,10.57 9.93,23.56 0.69,3.61 0.54,7.14 a 1.51,1.5 -9.1 0 1 -0.98,1.35 l -11.25,4.16 q -1.3,0.48 -1.49,-0.9 c -1.35,-9.92 -4.67,-20.5 -11.49,-27.96 q -4.7,-5.14 -9.78,-8.77 -7.54,-5.4 -17.13,-6.82 c -0.94,-0.14 -1.88,-0.81 -2.74,-0.66 q -0.59,0.1 -1.19,0.04 -4.2,-0.39 -8.07,-0.61 -2.23,-0.12 -4.89,0.33 c -2.09,0.36 -4.24,0.49 -6.21,0.98 q -5.23,1.31 -10.44,2.84 -1.5,0.44 -4.33,1.92 -2.18,1.14 -3.9,2.5 -2.28,1.8 -4.68,3.59 -2.95,2.2 -4.99,5.2 a 0.34,0.33 -35.5 0 1 -0.6,-0.1 c -0.55,-2.06 -0.96,-4.18 -1.79,-6.18 q -2.68,-6.47 -3.22,-8.53 -0.54,-2.06 2.72,-4.3 1.65,1.71 3.2,0.78 11.35,-6.82 23.26,-9.83 4.74,-1.2 10.12,-1.84 16.76,-2 31.31,3.9 10,4.05 18.13,9.71 1.79,1.24 4.92,4.28 2.36,2.29 5.04,4.22 z"
           id="path1663"
           style="fill:#dc143c;fill-opacity:1" />
        <path
           d="m 342.14,214.36 q 6.92,8.27 10.8,19.65 2.48,7.27 -1.08,13.69 -2.78,5.01 -5.13,9.66 -0.89,1.77 -1.42,-0.14 c -3.12,-11.2 -7.73,-22.57 -14.84,-31.82 q -16.2,-21.08 -41.58,-28.13 -0.93,-0.26 -1.89,-0.31 -0.61,-0.03 -1.13,-0.34 -0.43,-0.25 -0.92,-0.32 -2.9,-0.4 -5.74,-1.26 -2.83,-0.86 -7.82,-1.31 -4.14,-0.37 -8.09,-0.38 -11.85,-0.04 -18.01,0.69 -9.02,1.06 -17.49,4.72 -4.71,2.03 -8.78,4.24 c -1.57,0.85 -4.36,1.48 -6.15,1.28 q -4.91,-0.56 -8.45,0.48 -2.48,0.74 -5.13,1.16 -2.27,0.37 -4.33,1.11 -3.63,1.31 -7.45,1.16 c 1.53,-0.77 2.86,-1.24 4.26,-2.24 q 11.23,-8.02 21.81,-13.45 8.49,-4.36 19.27,-7.71 15.39,-4.79 32.34,-4.56 9.62,0.14 19.77,2.38 32.66,7.21 57.18,31.75 z"
           id="path1665"
           style="fill:#dc143c;fill-opacity:1" />
        <path
           id="path1667"
           d="M 163.80469 204.95508 C 163.61708 204.95112 163.4232 204.96357 163.2207 204.99023 C 163.52737 205.29023 163.44094 205.55263 162.96094 205.7793 C 158.57428 205.9593 154.18744 206.07247 149.80078 206.11914 C 147.84745 206.13914 146.10364 206.43953 144.57031 207.01953 C 142.88365 207.6462 141.18713 208.18729 139.48047 208.64062 C 135.92714 209.58062 132.54961 210.88412 129.34961 212.55078 C 126.77961 213.89078 124.60094 215.78024 122.21094 217.49023 C 121.9776 217.65023 121.01055 218.51031 119.31055 220.07031 C 118.29055 221.01031 117.12078 221.64714 115.80078 221.98047 C 113.90078 225.24047 112.08914 228.80636 110.36914 232.67969 C 109.57581 234.46635 108.84635 236.82953 108.17969 239.76953 C 107.83969 241.28953 108.69047 242.17326 110.73047 242.41992 L 120.59961 245.13086 C 121.00628 245.24419 121.29737 245.10737 121.4707 244.7207 C 121.9407 243.6707 121.9993 242.51992 122.5293 241.41992 C 123.4493 239.47992 124.40706 237.52411 125.40039 235.55078 C 126.38706 233.59078 127.67 231.83573 129.25 230.28906 C 131.75 227.83573 134.12248 226.02604 136.36914 224.85938 C 138.63581 223.68604 141.1924 222.51318 144.03906 221.33984 C 145.19906 220.85984 146.33589 220.60055 147.44922 220.56055 C 148.72922 220.51388 149.97612 220.27318 151.18945 219.83984 C 152.20945 219.47318 153.26914 219.31271 154.36914 219.35938 C 155.45581 219.41271 156.54729 219.40031 157.64062 219.32031 C 159.36062 219.19031 160.52969 217.77945 161.42969 216.43945 C 162.14302 215.37279 162.85078 214.39023 163.55078 213.49023 C 164.57078 212.1769 165.26419 210.6707 165.63086 208.9707 C 165.69753 208.65737 165.87969 208.44341 166.17969 208.33008 C 166.67969 208.13674 166.83706 207.78906 166.65039 207.28906 C 166.06706 205.76073 165.11792 204.98279 163.80469 204.95508 z "
           style="fill:#dc143c;fill-opacity:1" />
        <path
           d="m 252.91,209.83 c -0.05,1.81 1.1,3.55 3.04,3.42 q 14.72,-1 25.55,1.97 4.72,1.3 14.51,5.73 7.44,3.36 20.23,12.89 9.65,10.56 13.39,25.37 0.35,1.42 0.18,2.82 -0.18,1.42 -1.61,1.45 l -12.58,0.29 a 1.42,1.42 0 0 1 -1.4,-1.06 q -4.32,-16.61 -19.81,-27.56 -2.29,-1.62 -4.67,-2.74 -2.52,-1.19 -5.01,-2.26 -4.68,-2.01 -8.9,-2.4 -1.25,-0.11 -2.43,-0.21 -1.14,-0.09 -2.09,-0.74 -3.03,-2.09 -5.93,-4.35 -3.09,-2.42 -6.05,-4 -4.04,-2.15 -8.46,-4.32 -1.7,-0.84 -3.29,-2.47 -0.4,-0.42 0.1,-0.71 2.33,-1.35 5.23,-1.12 z"
           id="path1669"
           style="fill:#dc143c;fill-opacity:1" />
        <path
           d="m 471.19,222.91 q 4.79,8.11 5.08,18.07 a 1.49,1.49 0 0 1 -1.07,1.47 l -11.22,3.27 a 1.13,1.12 72.8 0 1 -1.39,-0.74 q -1.76,-5.49 -4.25,-10.57 c -3.49,-7.13 -15.18,-10.26 -22.21,-8.08 -2.71,0.84 -5.73,1.33 -8.13,2.79 q -15.16,9.21 -20.25,25.41 a 1.82,1.82 0 0 1 -1.5,1.26 l -7.31,0.97 a 0.45,0.44 10.9 0 1 -0.45,-0.66 q 2.76,-4.75 4.84,-10.15 1.13,-2.96 1.45,-7.93 0.3,-4.55 0.82,-7.98 12.93,-11.64 26.15,-15.75 20.9,-6.51 39.44,8.62 z"
           id="path1671"
           style="fill:#dc143c;fill-opacity:1" />
        <path
           d="m 426.22,252.79 a 0.41,0.41 0 0 1 -0.39,-0.65 q 4.28,-5.94 9.69,-9.37 c 5.22,-3.29 10.57,0.37 10.71,6.15 a 1.2,1.19 85.2 0 1 -1.02,1.22 z"
           id="path1677"
           style="fill:#dc143c;fill-opacity:1" />
        <path
           d="m 293.57,254.83 3.55,7.89 a 0.52,0.52 0 0 1 -0.45,0.73 l -4.03,0.21 a 0.52,0.52 0 0 1 -0.51,-0.33 l -5.61,-14.38 a 0.52,0.52 0 0 1 0.86,-0.55 l 6.09,6.28 a 0.52,0.52 0 0 1 0.1,0.15 z"
           id="path1679"
           style="fill:#dc143c;fill-opacity:1" />
        <path
           id="path1673"
           d="m 211.89062,224.55078 c -9.73999,0.0467 -19.20086,2.36256 -28.38085,6.94922 -1.77,0.89 -3.61969,1.71016 -5.17969,2.91016 -4.8,3.66666 -9.30311,7.47326 -13.50977,11.41992 -0.46,0.44 -1.51349,1.6869 -3.16015,3.74023 -1.20667,1.51333 -2.54001,2.51334 -4,3 0.54666,0.15334 1.10015,0.41883 1.66015,0.79883 0.27334,0.18667 0.57373,0.2669 0.90039,0.24024 1.13334,-0.0733 2.21667,0.0809 3.25,0.46093 3.58667,1.16 7.19675,1.63636 10.83008,1.42969 0.74778,-0.0445 1.44371,-0.3868 1.92969,-0.94922 3.53333,-4.11999 7.65271,-7.79482 12.35937,-11.02148 3.03,-2.09 6.11993,-2.9786 9.41993,-4.3086 1.36666,-0.55333 2.71435,-0.87117 4.04101,-0.95117 1.72,-0.10667 3.34558,-0.42255 4.87891,-0.94922 1.5,-0.50666 3.19651,-0.73612 5.08984,-0.68945 1.84,0.04 3.69698,0.16247 5.57031,0.36914 4.34,0.77333 8.61985,1.83612 12.83985,3.18945 4.11333,1.32667 7.67302,2.9511 10.67969,4.8711 6.92999,4.40999 12.40047,9.06946 16.73046,16.18945 0.67334,1.12 1.64349,1.70333 2.91016,1.75 4.50666,0.15333 8.98303,0.28086 13.42969,0.38086 0.84666,0.02 1.12651,-0.36992 0.83984,-1.16992 -2.73,-7.56999 -7.5504,-15.86016 -13.90039,-21.41016 0.0467,0.15333 0.0106,0.30875 -0.10937,0.46875 -0.19977,0.25924 -0.5632,0.32081 -0.83008,0.14063 -2.14667,-1.42667 -4.32883,-2.87318 -6.54883,-4.33985 -6.15999,-4.09333 -12.41506,-7.20031 -18.76172,-9.32031 -6.49333,-2.17333 -14.15186,-3.23922 -22.97852,-3.19922 z m -46.59179,29.5918 c 0.17312,0.0325 0.34625,0.0498 0.53125,0.0273 -0.185,0.0225 -0.35813,0.005 -0.53125,-0.0273 z"
           sodipodi:nodetypes="cccccccccccccccccccccccccccccccc"
           style="fill:#dc143c;fill-opacity:1" />
        <path
           d="m 235.25,261.76 q -20.5,-2.02 -36.83,-3.31 -1.05,-0.08 -1.98,-0.57 a 0.59,0.59 0 0 1 0.01,-1.05 c 6.84,-3.33 14.66,-3.75 22.1,-2.99 5.52,0.56 10.54,2.78 15.33,5.56 q 1.1,0.63 1.8,1.62 a 0.47,0.47 0 0 1 -0.43,0.74 z"
           id="path1681"
           style="fill:#dc143c;fill-opacity:1" />
        <path
           d="m 391.94,177.55 q -2.88,1.85 -4.9,4.05 a 0.91,0.91 0 0 1 -1.46,-0.15 q -0.29,-0.51 -0.3,-1.17 -0.01,-1.33 1.09,-2.07 2.56,-1.71 4.9,-2.25 4.88,-1.12 0.67,1.59 z"
           id="path1733"
           style="display:inline;fill:#dc143c;fill-opacity:1" />
        <path
           d="m 147.09,236.67 q -1.94,3.78 -4.49,7.91 c -1.26,2.03 -1.46,6.18 -4.8,5.41 a 1.03,1.03 0 0 1 -0.71,-1.42 q 2.93,-6.54 8.13,-11.48 0.63,-0.6 1.49,-0.87 a 0.32,0.32 0 0 1 0.38,0.45 z"
           id="path1739"
           style="display:inline;fill:#dc143c;fill-opacity:1" />
      </g>
      <g
         id="g2913"
         inkscape:label="Sticks"
         style="display:inline;fill:#dc143c;fill-opacity:1">
        <path
           id="path1725"
           d="M 524.16992,20.699219 C 515.67993,31.749208 506.96046,42.620011 498.73047,53.75 c -8.57999,11.619988 -17.76032,22.689933 -26.57031,34.169922 -8.90666,11.606655 -17.0311,21.895818 -24.3711,30.869138 -2.24,2.74 -5.16287,5.81714 -8.76953,9.23047 -1.9,1.16 -3.43294,2.90071 -4.59961,5.2207 -0.2922,0.59171 -0.0557,1.30633 0.5293,1.59961 l 10.03125,5.05078 c 0.74494,0.37305 1.64821,0.15775 2.13867,-0.50976 l 4.89063,-6.58008 c 1.67999,-1.82 3.26953,-3.69753 4.76953,-5.63086 1.67333,-2.16 3.25047,-4.08286 4.73047,-5.76953 4.88666,-5.55999 9.86612,-11.41698 14.93945,-17.57031 3.88999,-4.729997 7.96032,-9.040788 12.07031,-13.550783 6.84999,-7.509993 13.27071,-15.768602 19.7207,-23.808594 2.62,-3.259997 6.32582,-7.720865 11.11915,-13.380859 5.17332,-6.113327 10.36984,-12.542403 15.58984,-19.289063 0.29714,-0.379384 0.28488,-0.915846 -0.0293,-1.28125 l -6.14062,-7.179687 z"
           sodipodi:nodetypes="cccccccccccccccccccc"
           style="fill:#dc143c;fill-opacity:1" />
        <path
           d="m 555.46,43.73 10.5,10.09 a 1.6,1.59 36.6 0 1 0.29,1.94 q -1.47,2.6 -3.84,4.56 -1.67,1.37 -3.23,2.91 -9.32,9.18 -17.72,18.29 -2.36,2.56 -5.08,5.15 -2.58,2.46 -4.91,5.31 -1.54,1.89 -6.99,7.34 c -1.47,1.48 -2.52,3.18 -4.36,4.31 q -1.3,0.8 -2.29,1.85 -4.69,4.95 -9.52,9.72 -2.47,2.44 -4.64,5.09 c -1.98,2.43 -4.32,4.39 -6.38,6.69 q -5.68,6.35 -11.85,12.69 c -6.79,6.99 -12.45,13.52 -18.52,20.53 a 2.09,2.09 0 0 1 -2.96,0.2 q -4.01,-3.53 -6.72,-8.62 -0.25,-0.48 0,-0.96 1.12,-2.2 3.07,-3.37 3.58,-2.83 6.54,-6.24 9.96,-11.46 16.37,-18 9.53,-9.71 16.12,-17.11 8.73,-9.8 16.5,-18.11 7.18,-7.7 13.35,-14.87 12.89,-14.99 26.27,-29.39 z"
           id="path1635"
           style="display:inline;fill:#dc143c;fill-opacity:1" />
      </g>
      <g
         id="g3023"
         style="display:inline;fill:#dc143c;fill-opacity:1"
         inkscape:label="Bowl">
        <path
           id="path3017"
           style="display:inline;fill:#dc143c;fill-opacity:1"
           d="m 24.320312,229.17969 c -0.481491,-0.29733 -1.088115,0.11111 -0.980468,0.66015 1.579998,8.74999 3.271018,17.76087 5.541015,26.13086 7.913326,29.19997 20.04822,56.8225 36.408203,82.86914 3.719997,5.92 7.523494,11.37777 11.410157,16.3711 14.279985,18.34665 29.000171,33.7366 44.160161,46.16992 30.08663,24.68664 63.80995,41.77621 101.16992,51.26953 11.12665,2.83333 24.11738,5.18722 38.9707,7.06055 3.34,0.42 11.43264,0.83976 24.2793,1.25976 0.81333,-0.01 1.50054,-0.16174 2.06054,-0.45508 -0.56,0.29334 -1.24721,0.44508 -2.06054,0.45508 15.51998,0.43 30.20009,0.50977 45.08008,-1.74023 7.63999,-0.83333 15.76753,-2.23761 24.38085,-4.21094 11.81999,-2.71333 22.67699,-5.66914 32.57032,-8.86914 5.68666,-1.83333 11.55914,-4.17287 17.61914,-7.01953 10.31999,-4.84 18.62349,-9.10125 24.91015,-12.78125 10.11333,-5.91333 21.03002,-13.3959 32.75,-22.44922 14.07999,-10.86666 25.78777,-21.69691 35.1211,-32.49023 8.54666,-9.87999 15.36565,-18.55597 20.45898,-26.0293 7.42666,-10.89332 14.54295,-23.01468 21.34961,-36.36133 6.89999,-13.53332 12.60467,-28.20621 17.11133,-44.01953 3.36,-11.79999 6.54914,-22.36978 7.86914,-34.75977 0.0235,-0.18287 -0.11199,-0.35001 -0.30078,-0.37109 -0.23333,-0.0267 -0.44534,0.0299 -0.63867,0.16992 -2.41333,1.76 -4.73428,3.21776 -6.96094,4.3711 -8.48666,4.37999 -17.17389,8.31721 -26.06055,11.81054 -16.50665,6.54 -33.34931,12.07295 -50.52929,16.59961 -9.99333,2.82 -16.34217,4.51961 -19.04883,5.09961 -18.71332,4.02 -40.5343,7.53435 -65.46094,10.54102 -27.90997,3.35999 -57.79073,5.39836 -87.4707,5.56836 -21.95331,0.12666 -38.63551,-0.0853 -50.04883,-0.63868 -10.20666,-0.49333 -20.69428,-1.1476 -31.46094,-1.96093 -17.69331,-1.34 -37.57708,-3.48303 -59.65039,-6.42969 -16.01332,-2.14 -32.68931,-5.25318 -50.0293,-9.33984 -12.15998,-2.86 -23.700086,-6.85985 -35.580074,-10.58985 C 75.579771,253.29031 70.020854,251.09 64.380859,249 50.290873,243.78001 37.470299,237.34968 24.320312,229.17969 Z"
           sodipodi:nodetypes="ccccccccccccccccccccccccccccccccccccc"
           inkscape:label="Bowl" />
      </g>
      <g
         id="g3030"
         inkscape:label="Lower Bowl"
         style="fill:#dc143c;fill-opacity:1">
        <path
           id="path3026"
           d="m 394.18164,465.84961 c -0.2175,-0.002 -0.47482,0.0487 -0.77148,0.15039 -9.73999,3.34666 -19.38303,6.08427 -28.92969,8.21094 -12.29999,2.74999 -26.62056,5.19844 -40.06055,6.14844 -5.40666,0.37999 -10.64737,0.73388 -15.7207,1.06054 -18.27998,1.18 -35.92924,0.6676 -52.94922,-1.53906 -4.32,-0.56 -8.78,-0.8707 -13,-1.7207 -10.09332,-2.05334 -19.58095,-4.21691 -28.46094,-6.49024 -1.56666,-0.4 -3.13255,-0.76627 -4.69922,-1.09961 -1.57333,-0.33333 -3.09698,-0.77984 -4.57031,-1.33984 -6.58741,-2.69841 -6.82236,-2.23267 -7.39623,-2.51586 -1.74,-0.64041 -3.80067,-0.92755 -4.594,-0.81422 -0.34667,0.0533 -0.51334,0.25604 -0.5,0.60938 0.17333,3.59333 0.36364,6.91427 0.57031,9.96093 0.0733,1.16 0.60318,2.02628 1.58984,2.59961 3.45333,2.01333 7.14055,3.59667 11.06055,4.75 14.45999,4.26 29.19762,7.17357 44.21094,8.74024 30.11997,3.41999 60.15917,3.27192 90.11914,-0.44141 7.64666,-0.94667 14.25985,-1.91992 19.83984,-2.91992 9.09999,-1.61333 18.62986,-4.2831 28.58985,-8.00977 1.85333,-0.69333 3.5045,-1.63984 4.95117,-2.83984 0.62666,-0.52 0.9662,-1.18667 1.01953,-2 l 0.58984,-9.08984 c 0.06,-0.935 -0.23617,-1.40516 -0.88867,-1.41016 z"
           sodipodi:nodetypes="cccccscccccccccccccscccc"
           style="fill:#dc143c;fill-opacity:1" />
      </g>
    </g>
  </g>
  <g
     inkscape:groupmode="layer"
     id="layer4"
     inkscape:label="White">
    <g
       fill="#ffffff"
       id="g1723"
       style="display:inline;fill:#fffdd0;fill-opacity:1"
       inkscape:label="White1">
      <path
         d="m 524.17,20.7 c -8.49,11.05 -17.21,21.92 -25.44,33.05 -8.58,11.62 -17.76,22.69 -26.57,34.17 q -13.36,17.41 -24.37,30.87 -3.36,4.11 -8.77,9.23 1.56,-3.59 3.15,-5.81 c 7.52,-10.52 17.25,-23 24.08,-32.2 q 27.37,-36.87 52.42,-70.94 a 2.3,2.3 0 0 1 2.91,-0.67 q 1.08,0.57 2.59,2.3 z"
         id="path1687"
         style="fill:#fffdd0;fill-opacity:1" />
      <path
         d="m 555.46,43.73 q -13.38,14.4 -26.27,29.39 -6.17,7.17 -13.35,14.87 -7.77,8.31 -16.5,18.11 -6.59,7.4 -16.12,17.11 -6.41,6.54 -16.37,18 -2.96,3.41 -6.54,6.24 2.36,-2.94 4.67,-5.8 2.22,-2.77 4.83,-5.67 10.71,-11.87 20.47,-23.82 c 8.81,-10.78 16.97,-20.03 25.68,-29.97 7.88,-8.99 15.4,-18.39 23.15,-27.64 3.78,-4.5 8.27,-8.19 11.7,-13 q 0.33,-0.45 0.88,-0.47 2.6,-0.11 3.77,2.65 z"
         id="path1689"
         style="fill:#fffdd0;fill-opacity:1" />
      <path
         d="m 349.38,86.64 q 0.09,0.78 -1.13,0.61 -0.83,-0.12 -1.68,-0.3 -0.84,-0.19 -1.6,-0.55 -14.85,-7.2 -26.59,-10.26 c -13.24,-3.44 -28.56,-3.27 -42,-1.7 q -5.43,0.63 -10.62,2.34 -10.3,3.4 -20.56,8.3 c -5.47,2.61 -10.25,6.78 -15.37,10.03 q -1.22,0.77 -5.27,2.16 15.58,-17.76 39.18,-25.05 39.35,-12.17 75.3,7.21 5.54,2.98 10.34,7.21 z"
         id="path1691"
         style="fill:#fffdd0;fill-opacity:1" />
      <path
         d="m 308.55,104.26 q -11.56,1.08 -18.05,1.25 -12.28,0.33 -22.83,4.68 -1.52,0.63 -4.21,-0.64 4.67,-4.25 10.29,-5.78 c 11.27,-3.06 22.44,-3.91 33.06,-0.68 q 0.8,0.24 1.74,1.17 z"
         id="path1693"
         style="fill:#fffdd0;fill-opacity:1" />
      <path
         d="m 261.83,136.45 q -0.35,1.27 -1.51,0.43 -19.64,-14.08 -41.42,-19.52 -10.08,-2.51 -19.61,-2.51 -12.73,0 -21.24,2.03 -18.67,4.46 -35.8,15.38 -0.04,0.03 -3.33,2.36 -2.26,1.6 -4.87,2.7 c 7.9,-9.29 17.46,-15.39 28.4,-20.36 13.42,-6.1 28.54,-7.98 43.4,-6.77 q 8.91,0.73 19.16,4.13 11.15,3.7 17.95,7.48 9,5.01 18.87,14.65 z"
         id="path1695"
         style="fill:#fffdd0;fill-opacity:1" />
      <path
         d="m 417.69,114.31 q 0.35,1.37 -0.19,1.28 -11.56,-2.04 -24.12,-1.53 l -1.85,-3.03 q -0.44,-0.71 0.39,-0.84 14.37,-2.2 25.77,4.12 z"
         id="path1697"
         style="fill:#fffdd0;fill-opacity:1" />
      <path
         d="m 377.46,129.54 q -4.42,-1.1 -15.47,-4.76 -13.83,-4.59 -32.05,-3.26 -8.86,0.64 -16.9,3.43 -7.61,2.64 -16.3,7.37 -1.9,1.03 -3.61,2.1 -1.61,1.01 -3.04,2.4 -2.4,2.33 -5,3.47 0.52,-4.03 5.54,-7.94 17.3,-13.45 38.63,-16.26 c 4.82,-0.63 12.58,-0.8 18.29,0.72 q 1.65,0.44 3.41,0.77 14.1,2.6 26.36,10.67 0.28,0.19 0.38,0.5 0.19,0.57 -0.24,0.79 z"
         id="path1699"
         style="fill:#fffdd0;fill-opacity:1" />
      <path
         d="m 426.03,149.68 q -0.7,1.94 -3.3,1.45 -3.67,-0.7 -8.35,-2.31 -3.74,-1.29 -8.5,-1.65 -9.06,-0.69 -18.04,0.73 -3.58,0.57 -8.03,2.07 -5.82,1.97 -7.8,2.85 -8.1,3.59 -16.91,7.09 2.54,-3.82 6.05,-6.28 10.18,-7.13 22.35,-9.93 22.26,-5.11 42.53,5.98 z"
         id="path1701"
         style="fill:#fffdd0;fill-opacity:1" />
      <path
         d="m 238.06,159.84 q -10.12,-4.9 -20.36,-8.87 -1.42,-0.55 -2.96,-0.93 -1.48,-0.37 -3.02,-0.87 -2.11,-0.68 -4.41,-0.94 -7.27,-0.81 -13.79,-0.66 c -1.57,0.04 -3.22,0.36 -4.77,0.57 q -1.76,0.23 -3.51,0.67 -7.75,1.96 -14.99,4.1 -1.47,0.44 -3.23,0.09 -0.77,-0.14 -0.87,-1.12 14.17,-9.47 30.6,-9.11 20.73,0.45 37.26,12.71 2.34,1.74 4.05,4.36 z"
         id="path1703"
         style="fill:#fffdd0;fill-opacity:1" />
      <path
         d="m 119.03,143.95 q -0.38,1.75 -1.4,1.98 -7.87,1.74 -12.94,4.18 c -8.92,4.27 -17.79,9.22 -24.8,16.29 q -18.28,18.42 -26.48,44.87 0.6,-7.19 2.72,-13.46 1.76,-5.22 5.33,-12.68 3.92,-8.18 9.11,-14.33 c 9.2,-10.91 19.19,-19.1 32.2,-24.35 3.76,-1.52 11.96,-4.11 16.26,-2.5 z"
         id="path1705"
         style="fill:#fffdd0;fill-opacity:1" />
      <path
         d="m 189.9,178.49 q -4.91,0.98 -9.81,-0.68 -5.93,-2 -6.31,-2.09 -5.74,-1.35 -11.18,-1.65 c -3.71,-0.2 -7.41,-0.65 -11.02,-0.54 -13.5,0.39 -24.79,3.97 -36.49,9.88 q -7.27,3.67 -14.51,10.73 -8.4,8.19 -15.4,18.5 4.48,-11.73 12.14,-20.82 7.67,-9.1 18.49,-14.43 c 7.47,-3.68 16.4,-6.99 24.66,-8.01 q 22.66,-2.79 43.89,5.19 2.92,1.1 5.54,3.92 z"
         id="path1707"
         style="fill:#fffdd0;fill-opacity:1" />
      <path
         d="m 495.98,201.65 q -2.68,-1.93 -5.04,-4.22 -3.13,-3.04 -4.92,-4.28 -8.13,-5.66 -18.13,-9.71 -14.55,-5.9 -31.31,-3.9 -5.38,0.64 -10.12,1.84 -11.91,3.01 -23.26,9.83 -1.55,0.93 -3.2,-0.78 4.2,-4.4 8.85,-7.1 c 16.08,-9.33 35.16,-11.89 53.27,-6.81 14.09,3.95 27.07,11.43 33.86,25.13 z"
         id="path1709"
         style="fill:#fffdd0;fill-opacity:1" />
      <path
         d="m 342.14,214.36 q -24.52,-24.54 -57.18,-31.75 -10.15,-2.24 -19.77,-2.38 -16.95,-0.23 -32.34,4.56 -10.78,3.35 -19.27,7.71 -10.58,5.43 -21.81,13.45 c -1.4,1 -2.73,1.47 -4.26,2.24 q -0.88,0.59 -1.48,0.48 -0.6,-0.1 -0.19,-0.55 7.87,-8.51 14.88,-13.24 15.12,-10.2 31.52,-15.39 5.44,-1.73 13.28,-3.13 6.68,-1.19 13.18,-1.45 11.8,-0.49 21.36,1.21 8.35,1.49 20.66,6.02 21.08,7.76 37.72,26.39 2.91,3.26 3.7,5.83 z"
         id="path1711"
         style="fill:#fffdd0;fill-opacity:1" />
      <path
         d="m 384.02,205.56 q -3.81,-3.93 -7.4,-7.82 -4.64,-5.03 -7.6,-7.38 -9.19,-7.29 -20.1,-9.71 -3.2,-0.72 -9.92,-0.88 -5.04,-0.12 -4.9,-3.2 7.98,-1.63 14.1,-0.47 25.5,4.8 35.82,29.46 z"
         id="path1713"
         style="fill:#fffdd0;fill-opacity:1" />
      <path
         d="m 163.22,204.99 q 0.46,0.45 -0.26,0.79 -6.58,0.27 -13.16,0.34 -2.93,0.03 -5.23,0.9 -2.53,0.94 -5.09,1.62 -5.33,1.41 -10.13,3.91 c -2.57,1.34 -4.75,3.23 -7.14,4.94 q -0.35,0.24 -2.9,2.58 -1.53,1.41 -3.51,1.91 c 0.97,-1.75 1.78,-3.49 3.04,-4.94 q 13.5,-15.46 34.66,-14.95 4.28,0.1 9.72,2.9 z"
         id="path1715"
         style="fill:#fffdd0;fill-opacity:1" />
      <path
         d="m 471.19,222.91 q -18.54,-15.13 -39.44,-8.62 -13.22,4.11 -26.15,15.75 1.58,-5.34 6.48,-9.72 13.14,-11.73 29.34,-12.51 9.5,-0.46 16.75,3 8.2,3.91 13.02,12.1 z"
         id="path1717"
         style="fill:#fffdd0;fill-opacity:1" />
      <path
         d="m 316.24,233.84 q -12.79,-9.53 -20.23,-12.89 -9.79,-4.43 -14.51,-5.73 -10.83,-2.97 -25.55,-1.97 c -1.94,0.13 -3.09,-1.61 -3.04,-3.42 q 17.47,-3.14 34.84,2.89 17.72,6.15 28.49,21.12 z"
         id="path1719"
         style="fill:#fffdd0;fill-opacity:1" />
      <path
         d="m 261.12,240.8 q 0.07,0.23 -0.11,0.47 a 0.62,0.61 -54.5 0 1 -0.83,0.14 q -3.22,-2.14 -6.55,-4.34 -9.24,-6.14 -18.76,-9.32 -9.74,-3.26 -22.98,-3.2 -14.61,0.07 -28.38,6.95 c -1.77,0.89 -3.62,1.71 -5.18,2.91 q -7.2,5.5 -13.51,11.42 -0.69,0.66 -3.16,3.74 -1.81,2.27 -4,3 0.28,-3.27 2.76,-6.67 14.74,-20.15 38.61,-24.9 7.95,-1.58 19.07,-1.27 3.18,0.09 6.21,0.69 c 3,0.6 5.83,0.94 8.78,1.97 q 7.2,2.49 11.73,4.91 8.47,4.51 15.65,12.22 0.52,0.56 0.65,1.28 z"
         id="path1721"
         style="fill:#fffdd0;fill-opacity:1" />
    </g>
    <path
       fill="#ffffff"
       d="m 90.74,329.42 c -9.33,-14.1 -16.89,-28.92 -23.09,-44.63 -1.22,-3.07 -2.74,-7.59 -1.22,-10.63 2.22,-4.45 8.42,-3.38 12.05,-1.62 q 11.84,5.74 21.04,8.39 22.04,6.34 30.35,7.9 9.57,1.8 18.63,3.66 c 6.58,1.35 12.09,5.21 14.31,11.78 2.93,8.69 -1.52,16.38 -11.1,16.2 q -5.32,-0.1 -13.6,-2.27 -10.88,-2.85 -20.47,-5.13 -4.06,-0.97 -7.84,1.42 c -3.63,2.3 -3.5,7.75 -1.11,11 q 3.2,4.35 7.88,7.94 12.5,9.61 24.26,18.2 4.74,3.47 7.28,9.46 c 1.97,4.64 0.79,10.75 -3.9,13.18 -8.04,4.17 -16.77,-3.24 -22.08,-8.44 Q 101.4,345.52 90.74,329.42 Z"
       id="path1753"
       style="display:inline;fill:#fffdd0;fill-opacity:1"
       inkscape:label="White2" />
  </g>
</svg>
